<svg width="47" height="45" viewBox="0 0 47 45" fill="none" xmlns="http://www.w3.org/2000/svg">
<g clip-path="url(#clip0_8_32)">
<path d="M29.8227 1.11938C27.1221 1.11938 26.8883 1.12838 26.8073 1.2707C26.7621 1.35976 24.8718 6.23663 22.6123 12.1103C20.3441 17.9839 18.49 22.7987 18.4719 22.8165C18.4628 22.8253 16.5095 20.6539 14.1421 17.9929C10.4694 13.8638 9.82142 13.1693 9.77647 13.3384C9.69606 13.6914 9.65187 13.9931 9.59631 14.3531L14.8713 21.1523C17.7697 24.8901 20.1731 27.9604 20.2091 27.9694C20.2632 27.9872 32.4868 1.84913 32.703 1.2707C32.7571 1.1282 32.5771 1.11938 29.8227 1.11938ZM15.1899 4.06726C14.6325 4.06841 14.0755 4.09739 13.521 4.15407C11.1537 4.39445 8.80434 5.22207 6.84207 6.51264C5.78878 7.19776 3.97045 9.00451 3.23234 10.0813C-0.809208 16.0082 -0.0980346 23.9109 4.92475 28.7968C6.06794 29.9093 7.20202 30.7014 8.79543 31.4934C10.7488 32.4724 12.72 33.042 15.2764 33.3979C17.1846 33.6561 20.8213 33.6026 23.0896 33.2824L23.4676 33.2289V31.9742L23.1346 32.0275C21.1003 32.3479 17.2567 32.3301 15.3663 32.0006C10.4336 31.1374 6.81495 28.6989 4.78972 24.8633C3.03435 21.5438 2.80033 17.2721 4.17754 13.6232C4.88872 11.7188 5.84283 10.2503 7.30102 8.81757C8.81326 7.32245 10.2716 6.42339 12.1618 5.80051C14.6553 4.9817 17.7517 4.91945 20.6772 5.62239C21.1812 5.73826 21.6045 5.83614 21.6134 5.83614C21.6673 5.83614 21.9643 5.1242 21.9283 5.08857C21.8473 5.01732 20.0289 4.5902 19.102 4.42107C17.812 4.18262 16.5022 4.06417 15.1899 4.06726ZM35.4506 5.55226C35.3969 5.54439 35.5026 5.64151 35.7996 5.89839C39.7962 9.33357 42.1726 13.4186 43.0097 18.2955C43.2798 19.8797 43.3067 22.7809 43.0636 24.3471C42.3706 28.7524 40.4353 32.5703 37.2849 35.703C33.7652 39.2093 29.5075 41.2652 24.3677 41.9327C22.7925 42.1373 19.5611 42.0662 17.9766 41.7992C16.1224 41.4876 14.2411 40.9091 12.2608 40.0637C11.1717 39.5921 13.0801 40.7934 14.7003 41.5945C19.4979 43.9706 25.0699 44.5135 30.3628 43.134C31.7491 42.7691 32.9281 42.324 34.4043 41.6123C40.9665 38.4261 45.323 32.2766 46.07 25.1569C46.1962 23.9288 46.1332 21.5616 45.9261 20.2978C45.026 14.6199 41.7135 9.54714 36.7897 6.33451C36.3217 6.02307 35.7906 5.70264 35.6196 5.62257C35.5323 5.58076 35.4749 5.55582 35.4506 5.55226ZM31.4771 15.2147C30.9763 15.2098 30.516 15.2383 30.1559 15.3051C28.5355 15.6165 27.4284 16.5688 27.1045 17.9304C26.7623 19.3367 27.1854 20.5914 28.2114 21.2411C28.8145 21.6148 29.3546 21.7928 30.9841 22.1576C32.6943 22.5403 33.2793 22.7985 33.6215 23.3057C33.8195 23.5995 33.8642 23.7596 33.8553 24.2046C33.8553 24.525 33.7923 24.8631 33.7024 25.0234C33.4954 25.4237 32.9192 25.8776 32.3971 26.0646C31.38 26.4294 29.4627 26.4114 28.0045 26.0289C26.7532 25.6997 26.8883 25.6553 26.8883 26.385C26.8883 26.9368 26.9154 27.0257 27.0954 27.1414C27.8245 27.6219 30.696 27.8713 32.2892 27.6043C33.2792 27.4352 34.2426 27.0167 34.8005 26.5273C34.9985 26.3404 35.2957 25.9311 35.4576 25.6106C35.7368 25.059 35.7548 24.9611 35.7548 24.0801C35.7548 23.2344 35.7277 23.1011 35.5026 22.6382C34.9985 21.6148 34.1164 21.1609 31.7041 20.6537C30.0569 20.3154 29.3639 19.9506 29.0396 19.2386C28.6167 18.3131 29.0487 17.3074 30.0569 16.8714C30.975 16.4798 32.9642 16.5508 34.6116 17.0404L35.1696 17.2095V15.8213L34.7375 15.6788C33.8775 15.3975 32.579 15.2254 31.4771 15.2147Z" fill="#7684FF"/>
</g>
<defs>
<clipPath id="clip0_8_32">
<rect width="45.5151" height="45" fill="white" transform="translate(0.619781)"/>
</clipPath>
</defs>
</svg>
