<svg width="51" height="49" viewBox="0 0 51 49" fill="none" xmlns="http://www.w3.org/2000/svg">
<g clip-path="url(#clip0_15_81)">
<path d="M50.2036 37.9505C49.4805 38.2203 48.6824 38.2197 47.9597 37.9489C47.2371 37.6781 46.6399 37.1558 46.2809 36.4805L39.1392 26.7397L38.1042 25.3779L29.8178 36.4928C29.4803 37.1397 28.9156 37.6432 28.229 37.9093C27.5425 38.1753 26.7812 38.1856 26.0876 37.9383L36.7649 23.8099L26.8328 11.0475C27.5469 10.7937 28.328 10.7903 29.0443 11.038C29.7607 11.2856 30.3687 11.7692 30.7659 12.4072L38.1684 22.2685L45.6122 12.4481C45.9523 11.8127 46.5172 11.3227 47.1996 11.0712C47.882 10.8198 48.6343 10.8244 49.3135 11.0842L45.4591 16.1292L40.2384 22.832C40.0934 22.9595 39.9774 23.1159 39.898 23.2907C39.8185 23.4656 39.7775 23.6551 39.7775 23.8467C39.7775 24.0383 39.8185 24.2278 39.898 24.4026C39.9774 24.5775 40.0934 24.7338 40.2384 24.8614L50.1829 37.9526L50.2036 37.9505ZM0.526626 23.6344L1.39605 19.3979C3.78488 11.0209 13.5224 7.53582 20.221 12.7217C24.1438 15.7617 25.1229 20.0655 24.9304 24.9165H2.83266C2.47454 33.5793 8.81302 38.8101 16.9173 36.1375C18.231 35.6711 19.407 34.8906 20.3398 33.8658C21.2726 32.841 21.9331 31.6041 22.2621 30.2657C22.6906 28.9059 23.3965 28.6732 24.6923 29.0652C24.4764 30.7238 23.8819 32.3125 22.9537 33.7119C22.0254 35.1112 20.7874 36.2847 19.333 37.1441C16.9305 38.4402 14.1741 38.9539 11.4578 38.6118C8.74144 38.2696 6.20435 37.0892 4.20924 35.2392C2.23654 33.0493 1.0443 30.283 0.814362 27.3624C0.814362 26.8827 0.648759 26.4335 0.536976 26.0027C0.526899 25.214 0.522069 24.4252 0.522486 23.6364L0.526626 23.6344ZM2.85957 23.0504H22.8438C22.7196 16.7703 18.7016 12.3154 13.3423 12.2745C7.37641 12.1929 3.10797 16.5498 2.84508 23.0219L2.85957 23.0504Z" fill="black"/>
</g>
<defs>
<clipPath id="clip0_15_81">
<rect width="49.6811" height="49" fill="white" transform="translate(0.522491)"/>
</clipPath>
</defs>
</svg>
