<svg width="31" height="30" viewBox="0 0 31 30" fill="none" xmlns="http://www.w3.org/2000/svg">
<path d="M15.269 1.875C7.93799 1.875 1.99377 7.9043 1.99377 15.334C1.99377 21.2812 5.79855 26.3203 11.0731 28.1016C11.1471 28.1175 11.2226 28.1253 11.2983 28.125C11.7902 28.125 11.9798 27.7676 11.9798 27.457C11.9798 27.1348 11.968 26.291 11.9621 25.166C11.5229 25.2678 11.0737 25.3209 10.6227 25.3242C8.06838 25.3242 7.48758 23.3613 7.48758 23.3613C6.88309 21.8086 6.0119 21.3926 6.0119 21.3926C4.85624 20.5898 6.00597 20.5664 6.09487 20.5664H6.1008C7.43425 20.6836 8.13357 21.9609 8.13357 21.9609C8.79733 23.1094 9.6863 23.4316 10.4804 23.4316C11.0055 23.4213 11.5225 23.3015 11.9976 23.0801C12.1161 22.2129 12.4599 21.6211 12.8392 21.2812C9.89372 20.9414 6.79419 19.7871 6.79419 14.6309C6.79419 13.1602 7.30979 11.959 8.15727 11.0215C8.02097 10.6816 7.56463 9.31055 8.28766 7.45898C8.38464 7.43604 8.48432 7.42619 8.58398 7.42969C9.06402 7.42969 10.1486 7.61133 11.9383 8.8418C14.1131 8.24022 16.4131 8.24022 18.5878 8.8418C20.3776 7.61133 21.4622 7.42969 21.9422 7.42969C22.0419 7.42619 22.1415 7.43604 22.2385 7.45898C22.9615 9.31055 22.5052 10.6816 22.3689 11.0215C23.2164 11.9648 23.732 13.166 23.732 14.6309C23.732 19.7988 20.6265 20.9355 17.6692 21.2695C18.1433 21.6855 18.57 22.5059 18.57 23.7598C18.57 25.5586 18.5523 27.0117 18.5523 27.4512C18.5523 27.7676 18.736 28.125 19.2279 28.125C19.3075 28.1253 19.387 28.1175 19.4649 28.1016C24.7454 26.3203 28.5443 21.2754 28.5443 15.334C28.5443 7.9043 22.6 1.875 15.269 1.875Z" fill="#1D1D1D"/>
</svg>
