<svg width="53" height="51" viewBox="0 0 53 51" fill="none" xmlns="http://www.w3.org/2000/svg">
<g clip-path="url(#clip0_8_30)">
<path d="M25.7084 41.7541H27.3655V33.7089H25.7106L25.7084 41.7541ZM10.9339 31.0654L10.4224 29.5077L18.16 27.0215L18.6715 28.5834L10.9339 31.0696M20.9176 18.8254L16.1375 12.3165L17.4786 11.3539L22.2587 17.8606L20.9176 18.8254ZM32.3412 18.8849L31 17.9201L35.7823 11.4134L37.1235 12.376L32.3412 18.8849ZM42.2109 31.1674L34.4734 28.6811L34.9849 27.1214L42.7225 29.6076L42.2109 31.1674ZM26.5875 0.002125C12.3654 0.002125 0.795578 11.441 0.795578 25.4958C0.795578 39.5611 12.3654 51 26.5875 51C40.8096 51 52.3794 39.5633 52.3794 25.5C52.3794 11.4389 40.8096 0 26.5875 0V0.002125ZM26.5875 5.16587C37.9445 5.16587 47.1544 14.2673 47.1544 25.4958C47.1544 36.7306 37.9445 45.8384 26.5875 45.8384C15.2261 45.8384 6.01844 36.7306 6.01844 25.4958C6.01844 14.2673 15.2283 5.16587 26.5875 5.16587ZM29.9232 22.0809L31.1591 25.8379L32.7646 26.3521L42.9439 23.0839L41.0954 17.4633L30.9162 20.7336L29.9232 22.083M30.6476 27.3955L27.415 29.7181V31.3863L33.706 39.95L38.542 36.4735L32.251 27.9119L30.6476 27.3955ZM25.7578 29.7181L22.5253 27.3955L20.9197 27.9119L14.6286 36.4735L19.4646 39.9479L25.7578 31.3863V29.7181ZM22.0159 25.84L23.2496 22.0851L22.2566 20.7358L12.0774 17.4633L10.229 23.086L20.4103 26.3585L22.0159 25.84ZM24.5908 21.1225H28.5864L29.5793 19.771V9.1885H23.5999V19.771L24.5908 21.1225Z" fill="#D003BC"/>
</g>
<defs>
<clipPath id="clip0_8_30">
<rect width="51.5838" height="51" fill="white" transform="translate(0.795578)"/>
</clipPath>
</defs>
</svg>
