<svg width="55" height="54" viewBox="0 0 55 54" fill="none" xmlns="http://www.w3.org/2000/svg">
<path d="M3.64094 3.375V50.625H51.4318V3.375H3.64094ZM29.2432 40.0781C29.2432 44.6776 26.4952 46.9199 22.5173 46.9199C18.9244 46.9199 16.8389 45.0805 15.7807 42.8604L19.4375 40.6719C20.1427 41.9091 20.6782 42.9553 22.2175 42.9553C23.4976 42.9553 24.5495 42.3847 24.5495 40.1646V25.3125H29.2432V40.0781ZM39.8415 46.8144C35.6715 46.8144 32.9769 44.9539 31.6616 42.3847L35.3237 40.2891C36.2838 41.8437 37.5373 42.8794 39.7508 42.8794C41.6112 42.8794 42.6919 42.0652 42.6919 40.7964C42.6919 39.2745 41.5792 38.7355 39.5257 37.8432L38.4035 37.3665C35.1627 36.0039 33.0142 34.2911 33.0142 30.6745C33.0142 27.3449 35.5798 24.9128 39.5897 24.9128C42.4454 24.9128 44.4968 25.7903 45.9743 28.3595L42.471 30.5859C41.7008 29.2222 40.8709 28.6875 39.5844 28.6875C38.2691 28.6875 37.4349 29.5123 37.4349 30.5859C37.4349 31.918 38.2691 32.457 40.1935 33.2817L41.3157 33.7574C45.1337 35.3753 47.2832 37.0269 47.2832 40.7352C47.2843 44.7325 44.1085 46.8144 39.8415 46.8144Z" fill="#FFC700"/>
</svg>
