<svg width="48" height="46" viewBox="0 0 48 46" fill="none" xmlns="http://www.w3.org/2000/svg">
<g clip-path="url(#clip0_15_79)">
<path d="M43.7344 22.655C43.7321 21.3356 43.287 20.0542 42.4686 19.0105C41.6502 17.9669 40.5046 17.2198 39.2104 16.8858L45.017 0H16.2424L22.0646 16.9395C20.8077 17.3009 19.7034 18.0542 18.9172 19.0867C18.131 20.1192 17.7053 21.3752 17.7038 22.6665C17.7038 24.6656 18.7143 26.4366 20.2554 27.5272C19.6355 28.3892 18.9298 29.1879 18.1488 29.9115C16.7123 31.2609 15.0313 32.3318 13.1934 33.0683C11.5727 31.9892 10.8711 30.0859 11.5047 28.3801C12.8834 27.9577 14.0632 27.0625 14.8307 25.8565C15.5983 24.6505 15.9027 23.2134 15.689 21.8052C15.4753 20.397 14.7576 19.1108 13.6657 18.1792C12.5738 17.2477 11.1799 16.7325 9.73625 16.7268C8.13245 16.7288 6.59492 17.3581 5.46086 18.4766C4.3268 19.5951 3.68879 21.1115 3.68673 22.6933C3.68673 24.3187 4.36106 25.8098 5.44154 26.8755C5.34826 27.0614 5.25304 27.2493 5.15781 27.4486C4.25417 29.2867 3.22811 31.3643 2.83556 33.695C2.05241 38.3563 3.33499 42.0977 6.42874 44.2156C8.10315 45.3803 10.1028 46.0038 12.1518 46C15.7022 46 19.307 44.2424 22.7914 42.5366C25.2769 41.3253 27.8421 40.0602 30.3664 39.4469C31.2992 39.2207 32.2709 39.0885 33.2969 38.9409C35.3763 38.6477 37.5236 38.3429 39.4533 37.2351C40.5553 36.6122 41.5059 35.7592 42.2384 34.7358C42.9709 33.7124 43.4676 32.5434 43.6936 31.3107C44.0318 29.4055 43.6936 27.4888 42.8308 25.8098C43.4099 24.8898 43.7344 23.8146 43.7344 22.655ZM41.1013 22.655C41.1013 24.5046 39.5758 26.0092 37.7005 26.0092C36.9943 26.0072 36.3061 25.7889 35.7313 25.3843C35.1564 24.9797 34.7233 24.409 34.4917 23.751C34.2601 23.093 34.2416 22.3803 34.4387 21.7114C34.6359 21.0426 35.0389 20.4507 35.592 20.0177L35.6056 20.0043C35.7144 19.9238 35.8349 19.8433 35.9554 19.7647C35.9554 19.7647 35.9709 19.7647 35.9709 19.7513C36.0253 19.7244 36.0778 19.6842 36.1322 19.6554C36.1458 19.6554 36.1594 19.6439 36.173 19.6439C36.2274 19.6171 36.2955 19.5903 36.3615 19.5634C36.4295 19.5366 36.4976 19.5117 36.552 19.4848C36.5656 19.4848 36.5772 19.4714 36.5908 19.4714C36.6452 19.458 36.6997 19.4312 36.7541 19.4177C36.7677 19.4177 36.7929 19.4043 36.8085 19.4043C36.8746 19.3909 36.929 19.3775 36.997 19.366H37.0106L37.2127 19.3238C37.2263 19.3238 37.2516 19.3238 37.2671 19.3104C37.3215 19.3104 37.374 19.297 37.4284 19.297H37.4964C37.5644 19.297 37.6325 19.2836 37.7121 19.2836H37.887C37.9414 19.2836 37.9842 19.2836 38.0367 19.297H38.0639C38.1707 19.3104 38.2796 19.3238 38.3884 19.3507C39.155 19.5127 39.8423 19.9287 40.3359 20.5296C40.8295 21.1304 41.0996 21.8817 41.1013 22.655ZM20.0105 2.66417H41.2509L36.3751 16.8475C36.173 16.8858 35.9709 16.9529 35.7688 17.02L30.6385 6.69875L25.4926 16.9529C25.2905 16.8878 25.0728 16.8475 24.8571 16.8073L20.0105 2.66417ZM29.6649 21.4954C29.4165 20.266 28.7781 19.1464 27.8421 18.2984L30.6365 12.7324L33.4582 18.4192C32.6226 19.2433 32.0143 20.2975 31.7714 21.4954H29.6649ZM22.9002 19.3909C22.9663 19.3775 23.0207 19.3641 23.0887 19.3526H23.1276C23.1839 19.3373 23.2364 19.3372 23.2908 19.3238H23.3452C23.3997 19.3238 23.4405 19.3104 23.4929 19.3104H24.0196C24.074 19.3104 24.1148 19.3238 24.1556 19.3238C24.1828 19.3238 24.1945 19.3238 24.2236 19.3372C24.2761 19.3507 24.3169 19.3507 24.3713 19.3641C24.3849 19.3641 24.3985 19.3641 24.4257 19.3775L24.6142 19.4158H24.6278C24.6822 19.4312 24.7367 19.4446 24.7891 19.4714C24.8027 19.4714 24.8163 19.4848 24.8435 19.4848C24.8843 19.4983 24.9388 19.5117 24.9796 19.5366C24.9932 19.5366 25.0068 19.55 25.0184 19.55C25.0728 19.5768 25.1273 19.5903 25.1817 19.6171H25.1953C25.2577 19.6403 25.3165 19.6719 25.3702 19.711H25.3838C25.4382 19.7378 25.4926 19.7762 25.547 19.803C25.5606 19.803 25.5606 19.8164 25.5723 19.8164C25.6267 19.8433 25.6694 19.8835 25.7219 19.9103L25.7355 19.9238C25.8968 20.0426 26.0464 20.1768 26.1941 20.309L26.2077 20.3224C26.8095 20.9476 27.1436 21.7776 27.1405 22.6397C27.1107 23.5101 26.7391 24.3351 26.1042 24.9405C25.4694 25.5458 24.6209 25.8842 23.7378 25.8842C22.8547 25.8842 22.0062 25.5458 21.3713 24.9405C20.7365 24.3351 20.3649 23.5101 20.3351 22.6397C20.3329 21.8933 20.5844 21.1677 21.0494 20.5788C21.5144 19.99 22.166 19.5717 22.9002 19.3909ZM9.61188 19.297C11.4891 19.297 13.0146 20.8035 13.0146 22.6531C13.0146 24.5027 11.4891 26.0092 9.61382 26.0092C7.73853 26.0092 6.20914 24.5046 6.20914 22.655C6.20914 20.8054 7.73658 19.297 9.61188 19.297ZM41.0216 30.8449C40.868 31.697 40.5257 32.5051 40.0192 33.2118C39.5126 33.9184 38.8543 34.5062 38.0911 34.9332C36.618 35.7727 34.8088 36.0391 32.9044 36.3055C31.8336 36.4408 30.77 36.6269 29.7174 36.8633C26.9093 37.5437 24.21 38.8758 21.5904 40.1542C18.2402 41.791 15.0803 43.3358 12.1518 43.3358C10.65 43.345 9.18418 42.8833 7.96589 42.0172C4.99458 39.9932 5.14227 36.1982 5.49401 34.1205C5.81854 32.1751 6.72218 30.3523 7.58695 28.6063C7.64136 28.5008 7.68217 28.4069 7.73658 28.2996C8.03197 28.4069 8.3429 28.4874 8.66743 28.5411C8.1544 31.3643 9.61188 34.2796 12.4491 35.719L12.9621 35.9854L13.514 35.7861C15.8771 34.96 18.0653 33.6145 19.9969 31.8167C21.0636 30.8357 22.0064 29.7314 22.805 28.5277C23.1159 28.5794 23.4269 28.5928 23.7378 28.5928C25.0746 28.5898 26.3728 28.1507 27.4301 27.3439C28.4874 26.5372 29.2445 25.4082 29.5833 24.1327H31.8511C32.1877 25.4101 32.9447 26.5411 34.0033 27.3483C35.062 28.1555 36.3624 28.5932 37.7005 28.5928C38.8198 28.5928 39.8575 28.2862 40.7515 27.7687C41.1013 28.7653 41.2101 29.8061 41.0216 30.8449Z" fill="#C21325"/>
</g>
<defs>
<clipPath id="clip0_15_79">
<rect width="46.6394" height="46" fill="white" transform="translate(0.493866)"/>
</clipPath>
</defs>
</svg>
