<svg width="48" height="46" viewBox="0 0 48 46" fill="none" xmlns="http://www.w3.org/2000/svg">
<g clip-path="url(#clip0_15_75)">
<path d="M23.0364 0C22.6938 0 22.4344 0.00249167 22.3399 0.0128417C22.2396 0.023 21.9204 0.0530917 21.6333 0.0757083C15.009 0.6647 8.80419 4.18945 4.87424 9.60691C2.68588 12.6193 1.28631 16.036 0.757729 19.6554C0.570783 20.9185 0.547852 21.2917 0.547852 23.0046C0.547852 24.7175 0.571171 25.0907 0.757729 26.3542C2.02477 34.9907 8.25715 42.247 16.7098 44.9353C18.2234 45.4166 19.8191 45.7447 21.6335 45.9425C22.3401 46.0192 25.3946 46.0192 26.1012 45.9425C29.2332 45.6008 31.8868 44.8366 34.5035 43.5193C34.9048 43.3169 34.9823 43.263 34.9277 43.2178C34.8912 43.1911 33.1813 40.9296 31.1299 38.1961L27.4007 33.2281L22.7276 26.408C20.1564 22.6583 18.0409 19.5924 18.0227 19.5924C18.0044 19.5874 17.9863 22.6182 17.977 26.3179C17.964 32.7967 17.9589 33.0573 17.8767 33.2103C17.7582 33.4307 17.6668 33.5204 17.4756 33.6193C17.3299 33.691 17.202 33.7046 16.5137 33.7046H15.7247L15.5152 33.5742C15.3853 33.494 15.2798 33.3806 15.2097 33.2461L15.1139 33.0437L15.1242 24.0296L15.1372 15.011L15.2783 14.8356C15.3514 14.7411 15.5065 14.6199 15.6157 14.5615C15.8026 14.4714 15.8757 14.4624 16.6643 14.4624C17.5946 14.4624 17.7494 14.4982 17.991 14.7589C18.0596 14.8312 20.5898 18.5898 23.6169 23.1171C26.6818 27.6995 29.7486 32.2808 32.8173 36.8608L36.5099 42.3773L36.6965 42.256C38.3518 41.1949 40.1021 39.6842 41.4881 38.1108C44.4379 34.7702 46.3392 30.6971 46.9774 26.354C47.1641 25.0907 47.1869 24.7171 47.1869 23.0046C47.1869 21.2917 47.1636 20.9185 46.9774 19.655C45.71 11.0185 39.4778 3.76222 31.0253 1.07391C29.5344 0.597233 27.9479 0.268908 26.17 0.0711083C25.8416 0.037375 24.064 0.000766667 23.0364 0ZM30.9428 13.8326C31.6177 13.8326 31.736 13.8427 31.8866 13.9227C32.1056 14.0304 32.2831 14.2374 32.3472 14.453C32.3833 14.5699 32.3927 17.0698 32.3833 22.7031L32.3703 30.7866L30.9253 28.6016L29.4754 26.4167V20.5401C29.4754 16.7413 29.4934 14.6056 29.5208 14.5023C29.5937 14.2506 29.7533 14.0526 29.9723 13.9359C30.159 13.8412 30.2268 13.8326 30.9428 13.8326Z" fill="black"/>
</g>
<defs>
<clipPath id="clip0_15_75">
<rect width="46.6394" height="46" fill="white" transform="translate(0.547852)"/>
</clipPath>
</defs>
</svg>
