<svg width="51" height="49" viewBox="0 0 51 49" fill="none" xmlns="http://www.w3.org/2000/svg">
<g clip-path="url(#clip0_15_85)">
<path d="M45.6791 37.3314L28.5929 1.54449C28.1644 0.649836 27.2702 0.0595898 26.2567 0.00487313C25.2169 -0.0549477 24.2854 0.439748 23.7598 1.28153L5.22874 30.8845C4.65472 31.8069 4.6661 32.9447 5.26145 33.8561L14.3198 47.6958C14.8596 48.5218 15.7951 49 16.7672 49C17.0429 49 17.3199 48.9616 17.5925 48.8822L43.886 41.212C44.6915 40.977 45.35 40.415 45.6946 39.67C46.0393 38.925 46.0327 38.0717 45.6791 37.3314ZM41.8535 38.8666L19.5439 45.3744C18.8625 45.5734 18.2092 44.992 18.3524 44.3139L26.3223 6.66847C26.4714 5.9645 27.4579 5.85261 27.7693 6.50452L42.5262 37.4113C42.8044 37.9944 42.4869 38.682 41.8535 38.8666Z" fill="#2D3748"/>
</g>
<defs>
<clipPath id="clip0_15_85">
<rect width="49.6811" height="49" fill="white" transform="translate(0.538025)"/>
</clipPath>
</defs>
</svg>
