<svg width="53" height="51" viewBox="0 0 53 51" fill="none" xmlns="http://www.w3.org/2000/svg">
<g clip-path="url(#clip0_15_77)">
<path d="M26.3496 10.2C19.4551 10.2 15.146 13.6 13.4224 20.4C16.0079 17 19.0242 15.725 22.4715 16.575C24.4386 17.0595 25.8433 18.4662 27.401 20.026C29.9369 22.5632 32.8693 25.5 39.2769 25.5C46.1714 25.5 50.4805 22.1 52.2041 15.3C49.6186 18.7 46.6023 19.975 43.155 19.125C41.1879 18.6405 39.7832 17.2337 38.2254 15.674C35.6917 13.1367 32.7594 10.2 26.3496 10.2ZM13.4224 25.5C6.52788 25.5 2.21881 28.8999 0.495178 35.6999C3.08062 32.2999 6.09698 31.025 9.54424 31.875C11.5113 32.3595 12.9161 33.7662 14.4738 35.326C17.0097 37.8632 19.942 40.8 26.3496 40.8C33.2442 40.8 37.5532 37.4 39.2769 30.6C36.6914 34 33.6751 35.275 30.2278 34.425C28.2607 33.9405 26.8559 32.5337 25.2982 30.974C22.7645 28.4367 19.8322 25.5 13.4224 25.5Z" fill="#06B6D4"/>
</g>
<defs>
<clipPath id="clip0_15_77">
<rect width="51.7089" height="51" fill="white" transform="translate(0.49305)"/>
</clipPath>
</defs>
</svg>
