<svg width="44" height="42" viewBox="0 0 44 42" fill="none" xmlns="http://www.w3.org/2000/svg">
<g clip-path="url(#clip0_15_83)">
<path d="M2.54723 0C1.44183 0 0.551117 0.8785 0.551117 1.96875V40.0312C0.551117 41.1215 1.44183 42 2.54723 42H41.1388C42.2442 42 43.1349 41.1215 43.1349 40.0312V1.96875C43.1349 0.8785 42.2442 0 41.1388 0H2.54723ZM33.3548 17.0625C34.4407 17.0625 35.4024 17.1273 36.2417 17.2568C37.0332 17.3737 37.81 17.5732 38.5589 17.8517V22.1533C38.1994 21.908 37.8175 21.6965 37.418 21.5215C37.0061 21.3387 36.5809 21.1866 36.1459 21.0665C35.3219 20.84 34.471 20.7223 33.6157 20.7165C33.0834 20.7165 32.599 20.7655 32.1625 20.867C31.7735 20.9491 31.4003 21.092 31.0571 21.2905C30.7555 21.4725 30.5248 21.6912 30.3598 21.945C30.1938 22.2008 30.1075 22.4989 30.1114 22.8025C30.1114 23.1455 30.2054 23.4552 30.3882 23.7283C30.5727 24.0012 30.8353 24.2603 31.1742 24.5053C31.5131 24.7502 31.9247 24.9883 32.4091 25.2227C32.8935 25.459 33.4418 25.7023 34.0522 25.9508C34.8861 26.2955 35.6348 26.663 36.2985 27.0497C36.962 27.4382 37.5316 27.8775 38.0071 28.3675C38.4826 28.8557 38.8446 29.414 39.0966 30.0422C39.3485 30.6705 39.4763 31.4002 39.4763 32.235C39.4763 33.3848 39.2545 34.3525 38.8144 35.133C38.3845 35.9028 37.7675 36.5552 37.0188 37.0317C36.2118 37.5364 35.3174 37.89 34.3804 38.0747C33.3761 38.2847 32.3169 38.3898 31.2044 38.3898C30.1094 38.3945 29.0164 38.2984 27.9396 38.1028C27.008 37.9438 26.1044 37.6533 25.2568 37.24V32.6375C26.8604 33.9835 28.8947 34.7272 31.0003 34.7375C31.5912 34.7375 32.1075 34.685 32.5475 34.58C32.9893 34.475 33.3566 34.328 33.6529 34.1425C33.9475 33.9535 34.1675 33.733 34.3148 33.4775C34.4775 33.18 34.5516 32.8432 34.5283 32.5059C34.5051 32.1687 34.3855 31.8448 34.1835 31.5718C33.9198 31.2277 33.5974 30.9316 33.2306 30.6968C32.7758 30.3994 32.2969 30.1395 31.7988 29.9198C31.2083 29.6538 30.6126 29.3994 30.012 29.1567C28.3832 28.4865 27.1695 27.6657 26.3693 26.698C25.5709 25.7302 25.1699 24.5595 25.1699 23.1893C25.1699 22.1147 25.3881 21.1925 25.8246 20.4207C26.2611 19.649 26.8537 19.0138 27.606 18.515C28.4017 17.9973 29.2851 17.6244 30.2143 17.4142C31.2434 17.175 32.2976 17.0569 33.3548 17.0625ZM6.53946 17.3915H23.5073V21.182H17.4179V38.0625H12.597V21.182H6.53946V17.3915Z" fill="#3178C6"/>
</g>
<defs>
<clipPath id="clip0_15_83">
<rect width="42.5838" height="42" fill="white" transform="translate(0.551117)"/>
</clipPath>
</defs>
</svg>
