<svg width="52" height="51" viewBox="0 0 52 51" fill="none" xmlns="http://www.w3.org/2000/svg">
<g clip-path="url(#clip0_8_26)">
<path d="M47.7409 39.3083L26.7422 51.0005V41.8938L39.8255 34.8094L47.7409 39.3083ZM49.1772 38.0278V13.5754L41.493 17.941V33.6575L49.1772 38.0278ZM3.9002 39.3083L24.8989 51.0005V41.8938L11.8155 34.8094L3.9002 39.3083ZM2.46381 38.0278V13.5754L10.1479 17.941V33.6575L2.46381 38.0278ZM3.36287 11.9933L24.8989 -0.000183105V8.80454L11.1019 16.2746L10.9968 16.3341L3.36287 11.9933ZM48.2784 11.9933L26.7422 -0.000183105V8.80454L40.5391 16.2748L40.6442 16.3343L48.2784 11.9933ZM24.8991 39.8223L11.9911 32.8368V18.9941L24.8987 26.3307L24.8991 39.8223ZM26.7422 39.8223L39.6495 32.8368V18.9941L26.7422 26.3307V39.8223ZM12.8653 17.3921L25.8229 10.3764L38.781 17.3921L25.8231 24.7584L12.8653 17.3921Z" fill="#329DFF"/>
</g>
<defs>
<clipPath id="clip0_8_26">
<rect width="51.5838" height="51" fill="white" transform="translate(0.0286179)"/>
</clipPath>
</defs>
</svg>
