<svg width="31" height="31" viewBox="0 0 31 31" fill="none" xmlns="http://www.w3.org/2000/svg">
<path d="M6.43637 9.29612C7.99721 9.29612 9.26253 8.03081 9.26253 6.46996C9.26253 4.90911 7.99721 3.64379 6.43637 3.64379C4.87552 3.64379 3.6102 4.90911 3.6102 6.46996C3.6102 8.03081 4.87552 9.29612 6.43637 9.29612Z" fill="#6202FF"/>
<path d="M11.9311 11.4377V27.1172H16.7994V19.3634C16.7994 17.3174 17.1843 15.336 19.7212 15.336C22.2231 15.336 22.2541 17.6752 22.2541 19.4925V27.1185H27.125V18.5199C27.125 14.2962 26.2157 11.0502 21.2789 11.0502C18.9087 11.0502 17.32 12.3509 16.6703 13.5819H16.6044V11.4377H11.9311ZM3.99771 11.4377H8.87375V27.1172H3.99771V11.4377Z" fill="#6202FF"/>
</svg>
