<svg width="27" height="27" viewBox="0 0 27 27" fill="none" xmlns="http://www.w3.org/2000/svg">
<path d="M21.0713 6.08624L19.6313 7.21124L13.5 11.7675L7.36876 7.16624L5.92876 6.04124C5.58952 5.7606 5.1754 5.58566 4.73771 5.53808C4.30001 5.4905 3.85798 5.57238 3.46637 5.77358C3.07475 5.97478 2.75077 6.28644 2.53456 6.66997C2.31835 7.0535 2.21942 7.49203 2.25001 7.93124V20.97C2.25001 21.3758 2.4112 21.7649 2.69813 22.0519C2.98506 22.3388 3.37423 22.5 3.78001 22.5H7.36876V13.815L13.5 18.4162L19.6313 13.815V22.5H23.22C23.6258 22.5 24.0149 22.3388 24.3019 22.0519C24.5888 21.7649 24.75 21.3758 24.75 20.97V7.93124C24.7711 7.49582 24.6653 7.06364 24.4454 6.68724C24.2255 6.31083 23.901 6.00641 23.5113 5.81098C23.1217 5.61555 22.6836 5.53753 22.2504 5.58639C21.8173 5.63526 21.4076 5.80891 21.0713 6.08624Z" fill="#6202FF"/>
</svg>
